<svg width="16" height="16" viewBox="0 0 16 16" fill="none" xmlns="http://www.w3.org/2000/svg">
  
            <path
                d="M6.57031,1l-0.24219,1.28906c-0.92969,0.27344 -1.75781,0.75781 -2.4375,1.40625l-1.23828,-0.43359l-1.42969,2.47656l0.98828,0.84766c-0.11328,0.45703 -0.21094,0.92188 -0.21094,1.41406c0,0.49219 0.09766,0.95703 0.21094,1.41406l-0.98828,0.84766l1.42969,2.47656l1.23438,-0.4375c0.68359,0.65625 1.51172,1.13672 2.44141,1.41406l0.24219,1.28516h2.85938l0.24219,-1.28516c0.92969,-0.27734 1.75781,-0.76172 2.4375,-1.41406l1.23438,0.4375l1.43359,-2.47656l-0.99219,-0.84766c0.11328,-0.45703 0.21484,-0.92187 0.21484,-1.41406c0,-0.49219 -0.09766,-0.95703 -0.21094,-1.41406l0.98828,-0.84766l-1.42969,-2.47656l-1.23437,0.43359c-0.68359,-0.65234 -1.51172,-1.13281 -2.44141,-1.40625l-0.24219,-1.28906zM7.39844,2h1.20313l0.19531,1.05469l0.32031,0.07813c0.99219,0.22656 1.86719,0.74609 2.53906,1.46484l0.22266,0.23828l1.01563,-0.35547l0.60156,1.03906l-0.8125,0.69922l0.09766,0.3125c0.14063,0.46094 0.21875,0.95703 0.21875,1.46875c0,0.51172 -0.07812,1.00391 -0.21875,1.46875l-0.09766,0.3125l0.8125,0.69922l-0.60156,1.03906l-1.01562,-0.35937l-0.22266,0.24219c-0.67187,0.71875 -1.54687,1.23828 -2.53906,1.46875l-0.32031,0.07031l-0.19531,1.05859h-1.20313l-0.19531,-1.05859l-0.32031,-0.07031c-0.99219,-0.23047 -1.86719,-0.75 -2.53906,-1.46875l-0.22656,-0.24219l-1.01562,0.35938l-0.59766,-1.03906l0.8125,-0.69922l-0.09766,-0.3125c-0.14062,-0.46094 -0.21875,-0.95703 -0.21875,-1.46875c0,-0.51172 0.07813,-1.00781 0.21875,-1.46875l0.09766,-0.3125l-0.8125,-0.69922l0.59766,-1.03906l1.01953,0.35547l0.22266,-0.23828c0.67188,-0.71875 1.54688,-1.23828 2.53906,-1.46484l0.32031,-0.07812zM8,5c-1.65234,0 -3,1.34766 -3,3c0,1.65234 1.34766,3 3,3c1.65234,0 3,-1.34766 3,-3c0,-1.65234 -1.34766,-3 -3,-3zM8,6c1.10938,0 2,0.89063 2,2c0,1.10938 -0.89062,2 -2,2c-1.10937,0 -2,-0.89062 -2,-2c0,-1.10937 0.89063,-2 2,-2z" fill="black"></path>

</svg>